<svg version="1.1" xmlns="http://www.w3.org/2000/svg" xmlns:xlink="http://www.w3.org/1999/xlink" width="48" height="48"><defs><linearGradient x1="9.82524" y1="13.36893" x2="68.95149" y2="65.4078" gradientUnits="userSpaceOnUse" id="color-1"><stop offset="0" stop-color="#000000" stop-opacity="0.3"></stop><stop offset="1" stop-color="#000000" stop-opacity="0"></stop></linearGradient><linearGradient x1="13.36923" y1="23.25795" x2="24" y2="23.25795" gradientUnits="userSpaceOnUse" id="color-2"><stop offset="0" stop-color="#c8c8c8"></stop><stop offset="1" stop-color="#cdcdcd"></stop></linearGradient><linearGradient x1="22.03" y1="26.6267" x2="34.63107" y2="26.6267" gradientUnits="userSpaceOnUse" id="color-3"><stop offset="0" stop-color="#d9d9d9"></stop><stop offset="1" stop-color="#e2e2e2"></stop></linearGradient><filter id="dropshadow-base"><feColorMatrix type="matrix" values="0 0 0 0 0  0 0 0 0 0  0 0 0 0 0  0 0 0 .8 0"></feColorMatrix> <feOffset dx="0" dy="1"></feOffset> <feGaussianBlur stdDeviation="1"></feGaussianBlur> <feComposite in="SourceGraphic"></feComposite></filter><filter id="dropshadow-banner" x="-10%" y="-10%" width="120%" height="130%"><feColorMatrix type="matrix" values="0 0 0 0 0  0 0 0 0 0  0 0 0 0 0  0 0 0 .4 0"></feColorMatrix> <feOffset dx="0" dy="1"></feOffset> <feGaussianBlur stdDeviation="0.5"></feGaussianBlur> <feComposite in="SourceGraphic"></feComposite></filter></defs><g fill="none" fill-rule="nonzero" stroke="none" stroke-width="none" stroke-linecap="butt" stroke-linejoin="miter" stroke-miterlimit="10" stroke-dasharray="" stroke-dashoffset="0" font-family="none" font-weight="none" font-size="none" text-anchor="none" style="mix-blend-mode: normal"><path d="M2,24c0,-12.15026 9.84974,-22 22,-22c12.15026,0 22,9.84974 22,22c0,12.15026 -9.84974,22 -22,22c-12.15026,0 -22,-9.84974 -22,-22z" id="base 1 5" fill="#ffffff" stroke-width="1"></path><path d="M9.82524,32.85922v-17.71845c0,-0.97865 0.79319,-1.77184 1.77184,-1.77184h24.80583c0.48933,0 0.93229,0.1983 1.25292,0.51893l8.26797,8.26797c0.05046,0.60804 0.0762,1.2231 0.0762,1.84417c0,12.15026 -9.84974,22 -22,22c-0.62107,0 -1.23613,-0.02574 -1.84417,-0.0762l-11.81166,-11.81166c-0.32063,-0.32063 -0.51893,-0.76359 -0.51893,-1.25292z" fill="url(#color-1)" stroke-width="1"></path><path transform="translate(-10.01942,-10.01942) scale(1.41748,1.41748)" d="M15.25,31.5c-0.69042,0 -1.25,-0.55958 -1.25,-1.25v-12.5c0,0 0,0 0,0c0,-0.69042 0.55958,-1.25 1.25,-1.25h17.5c0.69042,0 1.25,0.55958 1.25,1.25v12.5c0,0.69042 -0.55958,1.25 -1.25,1.25z" fill="none" stroke-width="0"></path><g id="Layer_1 2" stroke-width="1"><path d="M36.40291,34.63107h-24.80583c-0.97865,0 -1.77184,-0.7932 -1.77184,-1.77184v-17.71845c0,-0.97865 0.7932,-1.77184 1.77184,-1.77184h24.80583c0.97865,0 1.77184,0.7932 1.77184,1.77184v17.71845c0,0.97865 -0.7932,1.77184 -1.77184,1.77184z" fill="#eaeaea"></path><path d="M13.36893,34.63107h-1.77184c-0.97865,0 -1.77184,-0.7932 -1.77184,-1.77184v-17.71845c0,-0.97865 0.7932,-1.77184 1.77184,-1.77184v0c0.97865,0 1.77184,0.7932 1.77184,1.77184z" fill="#d54c3f"></path><path d="M34.63107,34.63107h1.77184c0.97865,0 1.77184,-0.7932 1.77184,-1.77184v-17.71845c0,-0.97865 -0.7932,-1.77184 -1.77184,-1.77184v0c-0.97865,0 -1.77184,0.7932 -1.77184,1.77184z" fill="#b63524"></path><path d="M37.41759,16.59369c0.45773,-0.3207 0.75717,-0.85167 0.75717,-1.45291c0,-0.97865 -0.7932,-1.77184 -1.77184,-1.77184c-0.3774,0 -0.72764,0.11812 -1.01468,0.31893l-11.38706,8.29046l-0.00118,0.00059l-0.00118,-0.00059l-11.38706,-8.29046c-0.28704,-0.20081 -0.63727,-0.31893 -1.01468,-0.31893c-0.97865,0 -1.77184,0.7932 -1.77184,1.77184c0,0.60125 0.29944,1.13221 0.75717,1.45291l-0.04725,-0.03485l13.46484,9.80362" fill="#de5145"></path><path d="M37.46543,16.55884l-13.46543,9.80362" fill="#de5145"></path><path d="M36.40291,13.36893c-0.3774,0 -0.72764,0.11812 -1.01468,0.31893l-11.38706,8.29046l-0.00118,0.00059l-0.00118,-0.00059l-11.38706,-8.29046c-0.28704,-0.20081 -0.63727,-0.31893 -1.01468,-0.31893z" fill="#efefef"></path><path d="M13.36952,19.38612l-2.98615,-2.9578l-0.00118,0.00236c0.06261,0.05906 0.12934,0.1134 0.20022,0.16301l-0.04725,-0.03485l2.83495,2.0642l-0.00059,0.78434" fill="#c64132"></path><path d="M22.03207,27.89274l-8.66314,6.73833l0.00059,-15.31878l8.66078,8.57809" fill="#e3e3e3"></path><path d="M22.03207,27.89274l1.96793,-1.53028l-10.63048,-7.73942v0.68925l8.66078,8.57809z" fill="url(#color-2)"></path><path d="M28.76095,34.63107h5.87012v-16.00862l-10.63107,7.74001l-1.9697,1.52792z" fill="url(#color-3)"></path></g><path d="M2,24c0,-12.15026 9.84974,-22 22,-22c12.15026,0 22,9.84974 22,22c0,12.15026 -9.84974,22 -22,22c-12.15026,0 -22,-9.84974 -22,-22z" id="base 1 1 1" fill="none" stroke-width="1"></path><g id="Layer_1 1 1" fill="#000000" stroke-width="1" font-family="Roboto, sans-serif" font-weight="400" font-size="14" text-anchor="start"></g><rect x="2" y="2" width="44" height="22" fill="none" stroke-width="1"></rect><path d="M2,24v-22h44v22z" fill="none" stroke-width="1"></path><path d="M2,24v-22h44v22z" fill="none" stroke-width="1"></path><path d="M2,24v-22h44v22z" fill="none" stroke-width="1"></path><path d="M2,24v-22h44v22z" fill="none" stroke-width="1"></path></g></svg>