<svg version="1.1" xmlns="http://www.w3.org/2000/svg" xmlns:xlink="http://www.w3.org/1999/xlink" width="48" height="48"><defs><linearGradient x1="9.82523" y1="9.82523" x2="59.38797" y2="59.38798" gradientUnits="userSpaceOnUse" id="color-1"><stop offset="0" stop-color="#000000" stop-opacity="0.3"></stop><stop offset="1" stop-color="#000000" stop-opacity="0"></stop></linearGradient><filter id="dropshadow-base"><feColorMatrix type="matrix" values="0 0 0 0 0  0 0 0 0 0  0 0 0 0 0  0 0 0 .8 0"></feColorMatrix> <feOffset dx="0" dy="1"></feOffset> <feGaussianBlur stdDeviation="1"></feGaussianBlur> <feComposite in="SourceGraphic"></feComposite></filter><filter id="dropshadow-banner" x="-10%" y="-10%" width="120%" height="130%"><feColorMatrix type="matrix" values="0 0 0 0 0  0 0 0 0 0  0 0 0 0 0  0 0 0 .4 0"></feColorMatrix> <feOffset dx="0" dy="1"></feOffset> <feGaussianBlur stdDeviation="0.5"></feGaussianBlur> <feComposite in="SourceGraphic"></feComposite></filter></defs><g fill="none" fill-rule="nonzero" stroke="none" stroke-width="none" stroke-linecap="butt" stroke-linejoin="miter" stroke-miterlimit="10" stroke-dasharray="" stroke-dashoffset="0" font-family="none" font-weight="none" font-size="none" text-anchor="none" style="mix-blend-mode: normal"><path d="M2,24c0,-12.15026 9.84974,-22 22,-22c12.15026,0 22,9.84974 22,22c0,12.15026 -9.84974,22 -22,22c-12.15026,0 -22,-9.84974 -22,-22z" id="base 1 13" fill="#ffffff" stroke-width="1"></path><path d="M9.82523,23.99999c0,-7.82934 6.34542,-14.17476 14.17476,-14.17476c3.73472,0 7.12061,1.45623 9.65101,3.81501l12.26743,12.26743c-0.91385,10.6394 -9.40005,19.11549 -20.04394,20.01359l-11.89789,-11.89789c-2.56502,-2.56502 -4.15138,-6.10871 -4.15138,-10.02338z" fill="url(#color-1)" stroke-width="1"></path><path transform="translate(-10.01942,-10.01942) scale(1.41748,1.41748)" d="M24,34c-5.52344,0 -10,-4.47656 -10,-10c0,-5.52344 4.47656,-10 10,-10c2.63477,0 5.02344,1.02734 6.80859,2.69141l-2.82812,2.82813c-1.05859,-0.94336 -2.45117,-1.51953 -3.98047,-1.51953c-2.51953,0 -4.67187,1.55469 -5.56055,3.75586l-0.00456,-0.00334c-0.28048,0.69409 -0.4349,1.45271 -0.4349,2.24748c0,0.71345 0.12443,1.39776 0.35279,2.03242l0.00659,-0.00507c0.83203,2.31445 3.03906,3.97266 5.64063,3.97266c1.35742,0 2.60547,-0.45508 3.60938,-1.21484c0,0 0,0 -0.00195,0c0.80245,-0.60817 1.45,-1.41068 1.86684,-2.34055c0.06503,-0.14525 0.12448,-0.29355 0.17808,-0.44461h-5.65234v-4h9v0.04102h0.80469c0.12695,0.63477 0.19531,1.28906 0.19531,1.95898c0,4.38355 -2.70068,6.92361 -3.21921,7.35038c-1.78215,1.64485 -4.16399,2.64962 -6.78079,2.64962z" fill="none" stroke-width="0"></path><g stroke-width="1"><g id="surface1 1"><path d="M37.89791,21.22319h-1.14063v-0.05814h-12.75728v5.6699h8.01206c-1.17108,3.30006 -4.31057,5.6699 -8.01206,5.6699c-4.69816,0 -8.50486,-3.8067 -8.50486,-8.50486c0,-4.69816 3.8067,-8.50486 8.50486,-8.50486c2.16774,0 4.14169,0.81671 5.64222,2.1539l4.0088,-4.0088c-2.53042,-2.35877 -5.9163,-3.815 -9.65102,-3.815c-7.82934,0 -14.17476,6.34542 -14.17476,14.17476c0,7.82934 6.34542,14.17476 14.17476,14.17476c7.82934,0 14.17476,-6.34542 14.17476,-14.17476c0,-0.9496 -0.0969,-1.87705 -0.27685,-2.77681z" fill="#ffc107"></path><path d="M11.45866,17.40265l4.6594,3.41634c1.25967,-3.12011 4.31057,-5.32384 7.88194,-5.32384c2.16774,0 4.14169,0.81671 5.64222,2.1539l4.0088,-4.0088c-2.53042,-2.35877 -5.9163,-3.815 -9.65102,-3.815c-5.44565,0 -10.16596,3.07304 -12.54134,7.57741z" fill="#ff3d00"></path><path d="M24,38.17476c3.65997,0 6.98771,-1.40086 9.50429,-3.67935l-4.38808,-3.71257c-1.42301,1.07695 -3.19209,1.72201 -5.1162,1.72201c-3.68765,0 -6.81607,-2.35046 -7.99545,-5.63114l-4.62341,3.5603c2.34493,4.59019 7.10953,7.74075 12.61886,7.74075z" fill="#4caf50"></path><path d="M37.89791,21.22319h-1.14063v-0.05814h-12.75728v5.6699h8.01206c-0.56201,1.58635 -1.58359,2.95123 -2.89863,3.94789c0.00277,0 0.00277,0 0.00277,0l4.38808,3.71257c-0.31007,0.27962 4.67047,-3.40803 4.67047,-10.49541c0,-0.9496 -0.0969,-1.87705 -0.27685,-2.77681z" fill="#1976d2"></path></g></g><path d="M2,24c0,-12.15026 9.84974,-22 22,-22c12.15026,0 22,9.84974 22,22c0,12.15026 -9.84974,22 -22,22c-12.15026,0 -22,-9.84974 -22,-22z" id="base 1 9 1" fill="none" stroke-width="1"></path><path d="M2,24c0,-12.15026 9.84974,-22 22,-22c12.15026,0 22,9.84974 22,22c0,12.15026 -9.84974,22 -22,22c-12.15026,0 -22,-9.84974 -22,-22z" id="base 1 5 1" fill="none" stroke-width="1"></path><path d="M2,24c0,-12.15026 9.84974,-22 22,-22c12.15026,0 22,9.84974 22,22c0,12.15026 -9.84974,22 -22,22c-12.15026,0 -22,-9.84974 -22,-22z" id="base 1 1 1" fill="none" stroke-width="1"></path><g id="Layer_1 1 1" fill="#000000" stroke-width="1" font-family="Roboto, sans-serif" font-weight="400" font-size="14" text-anchor="start"></g><rect x="2" y="2" width="44" height="22" fill="none" stroke-width="1"></rect><path d="M2,24v-22h44v22z" fill="none" stroke-width="1"></path><path d="M2,24v-22h44v22z" fill="none" stroke-width="1"></path><path d="M2,24v-22h44v22z" fill="none" stroke-width="1"></path><path d="M2,24v-22h44v22z" fill="none" stroke-width="1"></path><g fill="#000000" stroke-width="1" font-family="Roboto, sans-serif" font-weight="400" font-size="14" text-anchor="start"><g></g><g></g><g></g><g></g></g><rect x="2" y="2" width="44" height="22" fill="none" stroke-width="1"></rect><path d="M2,24v-22h44v22z" fill="none" stroke-width="1"></path><path d="M2,24v-22h44v22z" fill="none" stroke-width="1"></path><path d="M2,24v-22h44v22z" fill="none" stroke-width="1"></path><path d="M2,24v-22h44v22z" fill="none" stroke-width="1"></path><g fill="#000000" stroke-width="1" font-family="Roboto, sans-serif" font-weight="400" font-size="14" text-anchor="start"><g id="surface1 1 1"></g></g><rect x="2" y="2" width="44" height="22" fill="none" stroke-width="1"></rect><path d="M2,24v-22h44v22z" fill="none" stroke-width="1"></path><path d="M2,24v-22h44v22z" fill="none" stroke-width="1"></path><path d="M2,24v-22h44v22z" fill="none" stroke-width="1"></path><path d="M2,24v-22h44v22z" fill="none" stroke-width="1"></path></g></svg>