<svg version="1.1" xmlns="http://www.w3.org/2000/svg" xmlns:xlink="http://www.w3.org/1999/xlink" width="48" height="48"><defs><linearGradient x1="9.82526" y1="13.96959" x2="61.45623" y2="57.31188" gradientUnits="userSpaceOnUse" id="color-1"><stop offset="0" stop-color="#000000" stop-opacity="0.3"></stop><stop offset="1" stop-color="#000000" stop-opacity="0"></stop></linearGradient><filter id="dropshadow-base"><feColorMatrix type="matrix" values="0 0 0 0 0  0 0 0 0 0  0 0 0 0 0  0 0 0 .8 0"></feColorMatrix> <feOffset dx="0" dy="1"></feOffset> <feGaussianBlur stdDeviation="1"></feGaussianBlur> <feComposite in="SourceGraphic"></feComposite></filter><filter id="dropshadow-banner" x="-10%" y="-10%" width="120%" height="130%"><feColorMatrix type="matrix" values="0 0 0 0 0  0 0 0 0 0  0 0 0 0 0  0 0 0 .4 0"></feColorMatrix> <feOffset dx="0" dy="1"></feOffset> <feGaussianBlur stdDeviation="0.5"></feGaussianBlur> <feComposite in="SourceGraphic"></feComposite></filter></defs><g fill="none" fill-rule="nonzero" stroke="none" stroke-width="none" stroke-linecap="butt" stroke-linejoin="miter" stroke-miterlimit="10" stroke-dasharray="" stroke-dashoffset="0" font-family="none" font-weight="none" font-size="none" text-anchor="none" style="mix-blend-mode: normal"><path d="M2,24c0,-12.15026 9.84974,-22 22,-22c12.15026,0 22,9.84974 22,22c0,12.15026 -9.84974,22 -22,22c-12.15026,0 -22,-9.84974 -22,-22z" id="base 1 5" fill="#ffffff" stroke-width="1"></path><path d="M11.54976,32.30591c-1.06549,-1.06549 -1.7245,-2.53744 -1.7245,-4.16332v-8.28518c0,-3.25176 2.63607,-5.88783 5.88783,-5.88783h16.57385c1.62588,0 3.09784,0.65902 4.16332,1.7245l9.51698,9.51698c-0.60688,11.18608 -9.57007,20.14927 -20.75615,20.75617z" fill="url(#color-1)" stroke-width="1"></path><path d="M32.28693,13.96958h-16.57385c-3.25176,0 -5.88783,2.63607 -5.88783,5.88783v8.28517c0,3.25176 2.63607,5.88783 5.88783,5.88783h16.57385c3.25176,0 5.88783,-2.63607 5.88783,-5.88783v-8.28517c0,-3.25176 -2.63607,-5.88783 -5.88783,-5.88783zM28.30503,24.4031l-7.75213,3.6973c-0.20656,0.09852 -0.44517,-0.05209 -0.44517,-0.28091v-7.6257c0,-0.23208 0.24488,-0.3825 0.45187,-0.27759l7.75213,3.9284c0.23049,0.11678 0.22649,0.44732 -0.0067,0.5585z" fill="none" stroke-width="0"></path><g id="Layer_1 2" stroke-width="1"><path d="M32.28693,13.96958h-16.57385c-3.25176,0 -5.88783,2.63607 -5.88783,5.88783v8.28517c0,3.25176 2.63607,5.88783 5.88783,5.88783h16.57385c3.25176,0 5.88783,-2.63607 5.88783,-5.88783v-8.28517c0,-3.25176 -2.63607,-5.88783 -5.88783,-5.88783zM28.30503,24.4031l-7.75213,3.6973c-0.20656,0.09852 -0.44517,-0.05209 -0.44517,-0.28091v-7.6257c0,-0.23208 0.24488,-0.3825 0.45187,-0.27759l7.75213,3.9284c0.23049,0.11678 0.22649,0.44732 -0.0067,0.5585z" fill="#f61c0d"></path><g fill="#000000" font-family="Roboto, sans-serif" font-weight="400" font-size="14" text-anchor="start"></g><g fill="#000000" font-family="Roboto, sans-serif" font-weight="400" font-size="14" text-anchor="start"></g><g fill="#000000" font-family="Roboto, sans-serif" font-weight="400" font-size="14" text-anchor="start"></g><g fill="#000000" font-family="Roboto, sans-serif" font-weight="400" font-size="14" text-anchor="start"></g><g fill="#000000" font-family="Roboto, sans-serif" font-weight="400" font-size="14" text-anchor="start"></g><g fill="#000000" font-family="Roboto, sans-serif" font-weight="400" font-size="14" text-anchor="start"></g><g fill="#000000" font-family="Roboto, sans-serif" font-weight="400" font-size="14" text-anchor="start"></g><g fill="#000000" font-family="Roboto, sans-serif" font-weight="400" font-size="14" text-anchor="start"></g><g fill="#000000" font-family="Roboto, sans-serif" font-weight="400" font-size="14" text-anchor="start"></g><g fill="#000000" font-family="Roboto, sans-serif" font-weight="400" font-size="14" text-anchor="start"></g><g fill="#000000" font-family="Roboto, sans-serif" font-weight="400" font-size="14" text-anchor="start"></g><g fill="#000000" font-family="Roboto, sans-serif" font-weight="400" font-size="14" text-anchor="start"></g><g fill="#000000" font-family="Roboto, sans-serif" font-weight="400" font-size="14" text-anchor="start"></g><g fill="#000000" font-family="Roboto, sans-serif" font-weight="400" font-size="14" text-anchor="start"></g><g fill="#000000" font-family="Roboto, sans-serif" font-weight="400" font-size="14" text-anchor="start"></g></g><path d="M2,24c0,-12.15026 9.84974,-22 22,-22c12.15026,0 22,9.84974 22,22c0,12.15026 -9.84974,22 -22,22c-12.15026,0 -22,-9.84974 -22,-22z" id="base 1 1 1" fill="none" stroke-width="1"></path><g id="Layer_1 1 1" fill="#000000" stroke-width="1" font-family="Roboto, sans-serif" font-weight="400" font-size="14" text-anchor="start"><g></g><g></g><g></g><g></g><g></g><g></g><g></g><g></g><g></g><g></g><g></g><g></g><g></g><g></g><g></g></g><rect x="2" y="2" width="44" height="22" fill="none" stroke-width="1"></rect><path d="M2,24v-22h44v22z" fill="none" stroke-width="1"></path><path d="M2,24v-22h44v22z" fill="none" stroke-width="1"></path><path d="M2,24v-22h44v22z" fill="none" stroke-width="1"></path><path d="M2,24v-22h44v22z" fill="none" stroke-width="1"></path></g></svg>